<?xml version="1.0" encoding="UTF-8"?>
<svg id="Layer_1" data-name="Layer 1" xmlns="http://www.w3.org/2000/svg" viewBox="0 0 49.46 32.76">
  <defs>
    <style>
      .cls-1 {
        fill: none;
        stroke: #fff;
        stroke-linecap: round;
        stroke-linejoin: round;
        stroke-width: .52px;
      }
    </style>
  </defs>
  <g>
    <g>
      <g>
        <path class="cls-1" d="M23.91,10.3c-2.02,.83-3.65,1.15-3.65,1.15,0,0,.02-.48,.1-1.24l.12-.98c.18-1.31,.51-3.02,1.1-4.64"/>
        <path class="cls-1" d="M23.74,6.33c-.42,.6-.83,1.24-1.23,1.92"/>
        <path class="cls-1" d="M24.1,4.59c-.58,.11-1.31,.49-1.66,.78"/>
      </g>
      <path class="cls-1" d="M30.2,24.73c-1.07,.95-2.49,1.62-4.08,1.86"/>
      <path class="cls-1" d="M31.54,23.11c-.14,.24-.29,.47-.47,.7"/>
      <path class="cls-1" d="M22.7,19.33c-2.95,.18-5.36,.75-6.51,1.51"/>
      <path class="cls-1" d="M33.27,20.83c-1.02-.67-3.05-1.2-5.56-1.43"/>
      <g>
        <path class="cls-1" d="M24.63,13.63c.19,1.06,.27,2.2-.1,2.84-.43,.85-.93,2.03-.93,2.98,0,1,.7,1.82,1.56,1.82s1.56-.81,1.56-1.82c0-.88-.47-2.03-.9-2.88,0,0,0,0,0,0-.03-.06-.06-.12-.09-.17-.46-.97,.87-2.37,1.72-3.14"/>
        <path class="cls-1" d="M25.93,18.84c.08,.71-.04,1.44-.71,1.67"/>
      </g>
      <g>
        <path class="cls-1" d="M32.35,4.59c-.02,.33-.05,.68-.14,1.04-.09,.37-.3,1.11-.42,1.47-.07,.2-.15,.4-.23,.6-1.81,4.35-6.42,7.45-6.42,7.45,0,0-.41-1.11-.8-2.69l-.29-1.32c-.4-2.08-.61-4.6,.05-6.56"/>
        <path class="cls-1" d="M27.79,4.68c-.59,1.43-1.13,3.08-1.51,4.86l-.22,1.19c-.03,.2-.06,.4-.09,.6"/>
        <path class="cls-1" d="M27.79,4.68c.05,.46,.14,1.03,.26,1.59l.26,1.01c.11,.34,.22,.63,.33,.83"/>
        <path class="cls-1" d="M27.17,6.12s-1.77,1.43-2.38,2.58"/>
      </g>
      <path class="cls-1" d="M27.24,20.65c1.07,.18,1.77,.48,1.77,.82"/>
      <path class="cls-1" d="M21.08,21.47c0-.36,.77-.67,1.92-.84"/>
    </g>
    <path class="cls-1" d="M33.97,19.85c.01,.18,.02,.36,.02,.55,0,4.29-4.15,7.77-9.26,7.77s-9.26-3.48-9.26-7.77c0-.18,0-.37,.02-.55"/>
    <path class="cls-1" d="M26.17,17.34c4.43,.19,7.82,1.25,7.82,2.52,0,1.41-4.15,2.55-9.26,2.55s-9.26-1.14-9.26-2.55,3.83-2.46,8.67-2.55"/>
  </g>
  <rect class="cls-1" x=".26" y=".26" width="48.95" height="32.24" rx="16.12" ry="16.12"/>
</svg>