<?xml version="1.0" encoding="UTF-8"?>
<svg id="Layer_1" data-name="Layer 1" xmlns="http://www.w3.org/2000/svg" viewBox="0 0 49.46 32.76">
  <defs>
    <style>
      .cls-1 {
        fill: #fff;
      }

      .cls-2 {
        fill: none;
        stroke: #fff;
        stroke-linecap: round;
        stroke-linejoin: round;
        stroke-width: .52px;
      }
    </style>
  </defs>
  <rect class="cls-2" x=".26" y=".26" width="48.95" height="32.24" rx="16.12" ry="16.12"/>
  <g>
    <path class="cls-1" d="M24.07,23.34c-.22,0-.4,.18-.4,.4s.18,.4,.4,.4,.4-.18,.4-.4-.18-.4-.4-.4Z"/>
    <path class="cls-1" d="M33.43,15.97h-2.31l2.22-2.62c.43,.19,.96,.12,1.33-.25,.47-.47,.47-1.22,0-1.68l-2.24-2.24c-.46-.46-1.21-.47-1.68,0-.36,.36-.44,.89-.24,1.33l-6.46,5.46h-7.74c-.87,0-1.59,.71-1.59,1.59,0,.66,.41,1.26,1.03,1.48,.02,2.95,1.96,5.53,4.76,6.39v.69c0,.66,.53,1.19,1.19,1.19h6.35c.66,0,1.19-.53,1.19-1.19v-.69c2.8-.86,4.73-3.44,4.76-6.39,.62-.23,1.03-.82,1.03-1.48,0-.87-.71-1.59-1.59-1.59Zm-2.13-6.23c.16-.16,.41-.15,.56,0l2.24,2.24c.15,.15,.16,.4,0,.56-.15,.15-.41,.15-.56,0,0,0,0,0,0,0s0,0,0,0l-2.24-2.24s0,0,0,0c-.15-.15-.15-.41,0-.56Zm-.3,1.38l1.73,1.73-2.64,3.12h-4.82l5.73-4.85Zm-2.57,15c0,.22-.18,.4-.4,.4h-6.35c-.22,0-.4-.18-.4-.4v-.5c.39,.07,.79,.11,1.19,.11h4.76c.4,0,.8-.04,1.19-.11v.5Zm.3-1.38c-.48,.12-.98,.19-1.49,.19h-4.76c-.5,0-1-.06-1.49-.19-2.58-.66-4.39-2.96-4.46-5.61h16.65c-.07,2.65-1.88,4.94-4.46,5.61Zm4.97-6.45s0,0,0,0c-.09,.03-.16,.05-.26,.05H16.3c-.42,0-.79-.34-.79-.79s.36-.79,.79-.79h17.13c.44,0,.79,.36,.79,.79,0,.34-.21,.64-.53,.74Z"/>
    <path class="cls-1" d="M22.48,23.34c-1.84,0-3.5-1.17-4.11-2.91-.07-.21-.3-.31-.51-.24-.21,.07-.31,.3-.24,.51,.73,2.06,2.68,3.44,4.86,3.44,.22,0,.4-.18,.4-.4,0-.22-.18-.4-.4-.4Z"/>
    <path class="cls-1" d="M24.35,13.46l-.68-.68v-1.42c0-2.41-1.96-4.36-4.36-4.36h-1.59c-.22,0-.4,.18-.4,.4v1.59c0,2.41,1.96,4.36,4.36,4.36h1.42l.68,.68c.15,.15,.41,.15,.56,0,.15-.15,.15-.41,0-.56Zm-1.47-1.47l-3.29-3.29c-.15-.15-.41-.15-.56,0-.15,.15-.15,.41,0,.56l3.29,3.29h-.63c-1.97,0-3.57-1.6-3.57-3.57v-1.19h1.19c1.97,0,3.57,1.6,3.57,3.57v.63h0Z"/>
    <path class="cls-1" d="M25.66,7c-.66,0-1.19,.53-1.19,1.19s.53,1.19,1.19,1.19,1.19-.53,1.19-1.19-.53-1.19-1.19-1.19Zm0,1.59c-.22,0-.4-.18-.4-.4s.18-.4,.4-.4,.4,.18,.4,.4-.18,.4-.4,.4Z"/>
  </g>
</svg>