<?xml version="1.0" encoding="utf-8"?>
<!-- Generator: Adobe Illustrator 27.0.0, SVG Export Plug-In . SVG Version: 6.00 Build 0)  -->
<svg version="1.1" id="Layer_1" xmlns="http://www.w3.org/2000/svg" xmlns:xlink="http://www.w3.org/1999/xlink" x="0px" y="0px"
	 viewBox="0 0 49.5 32.8" style="enable-background:new 0 0 49.5 32.8;" xml:space="preserve">
<style type="text/css">
	.st0{fill:none;stroke:#FFFFFF;stroke-width:0.5176;stroke-linecap:round;stroke-linejoin:round;stroke-miterlimit:10;}
	.st1{fill:#FFFFFF;}
</style>
<g>
	<path class="st0" d="M33.1,32.5H16.4c-8.9,0-16.1-7.3-16.1-16.1v0c0-8.9,7.3-16.1,16.1-16.1h16.7c8.9,0,16.1,7.3,16.1,16.1v0
		C49.2,25.2,41.9,32.5,33.1,32.5z"/>
	<g>
		<path class="st1" d="M21,19.9c-0.2-0.2-0.4-0.3-0.7-0.3c-0.3,0-0.5,0.1-0.7,0.3c-0.2,0.2-0.3,0.4-0.3,0.7c0,0.3,0.1,0.5,0.3,0.7h0
			c0.2,0.2,0.4,0.3,0.7,0.3c0.3,0,0.5-0.1,0.7-0.3h0c0.2-0.2,0.3-0.4,0.3-0.7C21.3,20.3,21.2,20.1,21,19.9z M20.5,20.8
			c-0.1,0.1-0.1,0.1-0.2,0.1c-0.1,0-0.2,0-0.2-0.1C20,20.7,20,20.7,20,20.6c0-0.1,0-0.2,0.1-0.2v0c0.1-0.1,0.1-0.1,0.2-0.1
			c0.1,0,0.2,0,0.2,0.1c0.1,0.1,0.1,0.1,0.1,0.2C20.6,20.7,20.6,20.7,20.5,20.8z"/>
		<path class="st1" d="M18.1,22.8c-0.3,0-0.5,0.1-0.7,0.3h0c-0.2,0.2-0.3,0.4-0.3,0.7c0,0.3,0.1,0.5,0.3,0.7h0
			c0.2,0.2,0.4,0.3,0.7,0.3c0.3,0,0.5-0.1,0.7-0.3c0.2-0.2,0.3-0.4,0.3-0.7c0-0.3-0.1-0.5-0.3-0.7C18.7,22.9,18.4,22.8,18.1,22.8z
			 M18.4,24c-0.1,0.1-0.1,0.1-0.2,0.1c-0.1,0-0.2,0-0.2-0.1h0c-0.1-0.1-0.1-0.1-0.1-0.2s0-0.2,0.1-0.2c0.1-0.1,0.1-0.1,0.2-0.1
			c0.1,0,0.2,0,0.2,0.1c0.1,0.1,0.1,0.1,0.1,0.2S18.4,24,18.4,24z"/>
		<path class="st1" d="M32.9,15.2c-1.2-1.2-2.9-1.9-4.7-1.9c-1,0-1.9,0.2-2.8,0.6V8.2h0c0.4,0,0.7-0.1,1-0.4
			c0.3-0.2,0.4-0.6,0.4-0.9c0-0.4-0.2-0.7-0.4-0.9c-0.2-0.2-0.6-0.4-1-0.4H21c-0.4,0-0.7,0.1-1,0.4c-0.3,0.2-0.4,0.5-0.4,0.9
			c0,0.4,0.2,0.7,0.4,0.9c0.3,0.2,0.6,0.4,1,0.4h0v6.1l-6.7,9.4c-0.1,0.1-0.2,0.3-0.2,0.5c0,0.2-0.1,0.3-0.1,0.5
			c0,0.5,0.2,1,0.5,1.4c0.3,0.3,0.8,0.5,1.4,0.5h12.3c1.8,0,3.5-0.7,4.7-1.9c1.2-1.2,1.9-2.9,1.9-4.7C34.9,18,34.1,16.4,32.9,15.2z
			 M20.4,7.3c-0.1-0.1-0.2-0.3-0.2-0.4s0.1-0.3,0.2-0.4c0.1-0.1,0.3-0.2,0.5-0.2h4.5c0.2,0,0.4,0.1,0.5,0.2c0.1,0.1,0.2,0.3,0.2,0.4
			S26.1,7.2,26,7.3c-0.1,0.1-0.3,0.2-0.5,0.2h-0.3h-3.8H21C20.8,7.5,20.6,7.5,20.4,7.3z M21.5,14.5c0-0.1,0.1-0.1,0.1-0.2h0V8.2h1.6
			h1.6v6c-0.5,0.3-0.9,0.6-1.3,1c-0.6,0.6-1.2,1.4-1.5,2.3c0,0,0,0-0.1,0c-0.6-0.2-1.3-0.5-2.3-0.4L21.5,14.5z M16,25.9
			c-0.4,0-0.7-0.1-0.9-0.3c-0.2-0.2-0.4-0.6-0.4-1c0-0.1,0-0.2,0-0.3c0-0.1,0.1-0.2,0.1-0.3l4.4-6.2c1.2-0.3,1.9,0,2.6,0.2
			c0,0,0.1,0,0.1,0c-0.2,0.6-0.3,1.2-0.3,1.8c0,1.1,0.2,2.1,0.7,3c-0.2,0-0.4,0.1-0.5,0.3c-0.2,0.2-0.3,0.4-0.3,0.7
			c0,0.3,0.1,0.5,0.3,0.7c0.2,0.2,0.4,0.3,0.7,0.3c0.3,0,0.5-0.1,0.7-0.3c0.1-0.1,0.1-0.1,0.1-0.2c0.1,0.1,0.2,0.2,0.3,0.3
			c0.5,0.5,1.2,1,1.9,1.3H16z M22.8,23.8c0,0.1,0,0.2-0.1,0.2h0c-0.1,0.1-0.1,0.1-0.2,0.1c-0.1,0-0.2,0-0.2-0.1
			c-0.1-0.1-0.1-0.1-0.1-0.2s0-0.2,0.1-0.2c0.1-0.1,0.1-0.1,0.2-0.1c0.1,0,0.2,0,0.2,0.1C22.8,23.6,22.8,23.7,22.8,23.8z M32.5,24.1
			c-1.1,1.1-2.6,1.8-4.3,1.8c-1.7,0-3.2-0.7-4.2-1.8c-1.1-1.1-1.8-2.6-1.8-4.3c0-1.7,0.7-3.2,1.8-4.2c1.1-1.1,2.6-1.8,4.2-1.8
			c1.7,0,3.2,0.7,4.3,1.8c1.1,1.1,1.8,2.6,1.8,4.2C34.3,21.5,33.6,23,32.5,24.1z"/>
		<path class="st1" d="M32.2,21v-2.3c0.2-0.1,0.3-0.2,0.5-0.3c0.2-0.2,0.3-0.5,0.3-0.8c0-0.3-0.1-0.6-0.3-0.8
			c-0.2-0.2-0.5-0.3-0.8-0.3c-0.3,0-0.6,0.1-0.8,0.3c0,0,0,0,0,0l-1.7-0.8c0-0.1,0-0.1,0-0.2c0-0.3-0.1-0.6-0.3-0.8
			c-0.2-0.2-0.5-0.3-0.8-0.3c-0.3,0-0.6,0.1-0.8,0.3h0c-0.2,0.2-0.3,0.5-0.3,0.8c0,0.1,0,0.1,0,0.2l-1.7,0.8c0,0,0,0,0,0
			c-0.2-0.2-0.5-0.3-0.8-0.3s-0.6,0.1-0.8,0.3c-0.2,0.2-0.3,0.5-0.3,0.8c0,0.3,0.1,0.6,0.3,0.8c0.1,0.1,0.3,0.2,0.5,0.3V21
			c-0.2,0.1-0.3,0.1-0.5,0.3c-0.2,0.2-0.3,0.5-0.3,0.8c0,0.3,0.1,0.6,0.3,0.8c0.2,0.2,0.5,0.3,0.8,0.3s0.6-0.1,0.8-0.3c0,0,0,0,0,0
			l1.7,0.8c0,0.1,0,0.1,0,0.2c0,0.3,0.1,0.6,0.3,0.8h0c0.2,0.2,0.5,0.3,0.8,0.3c0.3,0,0.6-0.1,0.8-0.3c0.2-0.2,0.3-0.5,0.3-0.8
			c0-0.1,0-0.1,0-0.2l1.7-0.8c0,0,0,0,0,0c0.2,0.2,0.5,0.3,0.8,0.3c0.3,0,0.6-0.1,0.8-0.3c0.2-0.2,0.3-0.5,0.3-0.8
			c0-0.3-0.1-0.6-0.3-0.8C32.5,21.2,32.3,21.1,32.2,21z M31.5,17.3c0.1-0.1,0.2-0.1,0.3-0.1c0.1,0,0.3,0.1,0.3,0.1v0
			c0.1,0.1,0.1,0.2,0.1,0.3c0,0.1-0.1,0.3-0.1,0.3c-0.1,0.1-0.2,0.1-0.3,0.1c-0.1,0-0.3-0.1-0.3-0.1h0c0,0-0.1-0.1-0.1-0.1
			c0,0,0,0,0,0c0,0,0,0,0,0c0,0,0,0,0-0.1c0,0,0,0,0,0c0,0,0,0,0,0c0,0,0,0,0,0c0,0,0,0,0,0c0,0,0-0.1,0-0.1c0,0,0,0,0,0
			c0,0,0,0,0,0c0,0,0-0.1,0-0.1C31.4,17.4,31.5,17.3,31.5,17.3L31.5,17.3z M27.9,15.6c0.1-0.1,0.2-0.1,0.3-0.1
			c0.1,0,0.3,0.1,0.3,0.1h0c0.1,0.1,0.1,0.2,0.1,0.3c0,0.1-0.1,0.3-0.1,0.3c-0.1,0.1-0.1,0.1-0.2,0.1c0,0,0,0,0,0c0,0,0,0,0,0
			c0,0,0,0-0.1,0c0,0,0,0-0.1,0c0,0,0,0,0,0c0,0,0,0,0,0c-0.1,0-0.2-0.1-0.2-0.1c0,0-0.1-0.1-0.1-0.1c0,0,0,0,0,0
			c0-0.1-0.1-0.1-0.1-0.2C27.8,15.8,27.8,15.7,27.9,15.6z M27.4,16.7C27.4,16.7,27.5,16.7,27.4,16.7c0.2,0.2,0.5,0.3,0.7,0.4
			c0,0,0,0,0,0c0,0,0,0,0.1,0c0,0,0,0,0.1,0c0,0,0,0,0,0c0,0,0,0,0.1,0c0,0,0,0,0,0c0,0,0,0,0.1,0c0,0,0,0,0,0c0,0,0,0,0,0
			c0,0,0,0,0,0c0,0,0,0,0.1,0c0,0,0,0,0,0c0,0,0,0,0.1,0c0,0,0,0,0,0c0.1-0.1,0.2-0.1,0.3-0.2c0,0,0,0,0,0l0.8,0.4l0.8,0.4
			c0,0,0,0.1,0,0.1c0,0,0,0,0,0c0,0,0,0,0,0c0,0,0,0,0,0.1c0,0,0,0,0,0.1c0,0,0,0,0,0c0,0,0,0,0,0c0,0,0,0.1,0,0.1L28.2,19l-2.5-1.2
			c0-0.1,0-0.1,0-0.2c0-0.1,0-0.1,0-0.2L27.4,16.7z M24.2,17.6c0-0.1,0.1-0.3,0.1-0.3v0c0.1-0.1,0.2-0.1,0.3-0.1
			c0.1,0,0.3,0.1,0.3,0.1c0.1,0.1,0.1,0.1,0.1,0.2c0,0,0,0,0,0c0,0,0,0,0,0c0,0,0,0,0,0c0,0,0,0.1,0,0.1c0,0,0,0,0,0c0,0,0,0,0,0
			c0,0,0,0,0,0c0,0,0,0,0,0c0,0,0,0.1,0,0.1c0,0.1-0.1,0.1-0.1,0.1c-0.1,0.1-0.2,0.1-0.3,0.1c-0.1,0-0.3-0.1-0.3-0.1
			C24.2,17.9,24.2,17.8,24.2,17.6z M24.7,22.6c-0.1,0-0.3-0.1-0.3-0.1c-0.1-0.1-0.1-0.2-0.1-0.3c0-0.1,0.1-0.3,0.1-0.3
			c0.1-0.1,0.2-0.1,0.3-0.1c0.1,0,0.3,0.1,0.3,0.1c0.1,0.1,0.1,0.2,0.1,0.3c0,0.1-0.1,0.3-0.1,0.3C24.9,22.5,24.8,22.6,24.7,22.6z
			 M25.7,22.3c0-0.1,0-0.1,0-0.2c0-0.3-0.1-0.6-0.3-0.8c-0.1-0.1-0.3-0.2-0.5-0.3v-2.3c0.2-0.1,0.3-0.2,0.5-0.3c0,0,0,0,0,0l2.5,1.2
			v3.2c-0.2,0.1-0.3,0.1-0.5,0.3c0,0,0,0,0,0L25.7,22.3z M28.6,24.2L28.6,24.2c-0.1,0.1-0.2,0.1-0.3,0.1c-0.1,0-0.3-0.1-0.3-0.1
			c-0.1-0.1-0.1-0.2-0.1-0.3c0-0.1,0.1-0.3,0.1-0.3c0.1-0.1,0.2-0.1,0.3-0.1c0.1,0,0.3,0.1,0.3,0.1c0.1,0.1,0.1,0.2,0.1,0.3
			C28.7,24,28.7,24.1,28.6,24.2z M29.1,23.1C29.1,23.1,29,23.1,29.1,23.1c-0.2-0.2-0.3-0.3-0.5-0.3v-3.2l2.5-1.2c0,0,0,0,0,0
			c0.1,0.1,0.3,0.2,0.5,0.3V21c-0.2,0.1-0.3,0.1-0.5,0.3c-0.2,0.2-0.3,0.5-0.3,0.8c0,0.1,0,0.1,0,0.2L29.1,23.1z M32.2,22.4
			c-0.1,0.1-0.2,0.1-0.3,0.1c-0.1,0-0.3-0.1-0.3-0.1c-0.1-0.1-0.1-0.2-0.1-0.3c0-0.1,0.1-0.3,0.1-0.3h0c0.1-0.1,0.2-0.1,0.3-0.1
			c0.1,0,0.3,0.1,0.3,0.1c0.1,0.1,0.1,0.2,0.1,0.3C32.3,22.2,32.3,22.4,32.2,22.4z"/>
	</g>
</g>
</svg>
