<?xml version="1.0" encoding="utf-8"?>
<!-- Generator: Adobe Illustrator 27.0.0, SVG Export Plug-In . SVG Version: 6.00 Build 0)  -->
<svg version="1.1" id="Capa_1" xmlns="http://www.w3.org/2000/svg" xmlns:xlink="http://www.w3.org/1999/xlink" x="0px" y="0px"
	 viewBox="0 0 800 800" style="enable-background:new 0 0 800 800;" xml:space="preserve">
<style type="text/css">
	.st0{fill:#8353CB;}
</style>
<g>
	<path class="st0" d="M634.7,329.4l-1.4-23.7c-1.1-19.1-15.7-34.7-34.7-37c-5.7-20.2-26.2-32.4-46.6-27.7l-386.3,86.4H73.5
		c-21.9-0.1-39.7,17.7-39.8,39.6c0,0.1,0,0.2,0,0.3v98.3c-0.1,22,17.6,39.9,39.6,40.1c0.1,0,0.1,0,0.2,0h82.3v20.9H73.5
		c-21.5-0.1-39.2,16.8-40.1,38.3c-16.1,5.2-27,20.2-27,37.2v99.6c0,21.8,17.7,40.1,39.5,40.1h549.2c21.6-0.2,39.1-17.5,39.6-39.1
		c16.2-5.8,27-21.1,27.1-38.2v-98.3c-0.2-22.1-18.2-39.8-40.2-39.6c0,0-0.1,0-0.1,0h-83.3v-20.9h83.3c22.2,0,40.2-17.9,40.4-40.1
		v-98.3C661.7,350.2,650.9,335,634.7,329.4z M555.6,256.6c10.8-2.4,21.8,3,26.4,13.1l-223.2,30.9L555.6,256.6z M590.6,284.8
		c12.8-1.8,24.6,7.2,26.4,20c0.1,0.6,0.2,1.3,0.2,1.9l1.1,20.7h-335L590.6,284.8z M595.1,725.8H45.9c-12.9,0-23.4-11.2-23.4-24.1
		V602c0.2-8.1,4.4-15.5,11.2-19.8v82.2c-0.2,22.1,17.6,40.2,39.8,40.4h544.8C616.9,716.1,607,725.8,595.1,725.8z M621.6,542.6
		c13.3,0,24.1,10.8,24.1,24.1v98c0,13.3-10.8,24.1-24.1,24.1H73.9c-13.3,0-24.1-10.8-24.1-24.1v-98c0-13.3,10.8-24.1,24.1-24.1h81.9
		v53.7c-7.9,3.1-13,10.9-12.8,19.4c0,11.6,9.4,21,21,21s21-9.4,21-21c0.1-8.6-5.1-16.3-13.1-19.4v-53.7H522v53.7
		c-6.4,3.2-12.7,10.7-12.7,19.4c0.1,11.6,9.5,21,21.1,21c11.5,0,20.8-9.4,20.8-20.9c0,0,0-0.1,0-0.1c0.1-8.6-5.2-16.3-13.2-19.4
		v-53.7H621.6z M169.1,616.5c0,1.6-2.2,4.9-4.9,4.9c-2.7,0-4.9-3.3-4.9-4.9H169.1z M535.6,616.5c0,1.6-2.2,4.9-4.9,4.9
		s-4.9-3.3-4.9-4.9H535.6z M522,526.6H171.9v-20.9H522V526.6z M645.7,465.5c0,13.3-10.8,24.1-24.1,24.1l0,0h-83.5v-54.2
		c8-3.1,13.3-10.8,13.3-19.4c0.1-11.5-9.3-20.9-20.8-21c0,0,0,0-0.1,0c-11.6,0-21.1,9.4-21.2,21c0,8.7,6.3,16.2,12.8,19.4v54.2
		H171.9v-54.2c8-3.1,13.2-10.8,13.1-19.4c-0.1-11.6-9.6-20.9-21.2-20.8c-11.5,0.1-20.7,9.4-20.8,20.8c-0.2,8.5,4.9,16.3,12.9,19.4
		v54.2H73.9c-13.3,0-24.1-10.8-24.1-24.1l0,0v-98c0-13.3,10.8-24.1,24.1-24.1l0,0h547.7c13.3,0,24.1,10.8,24.1,24.1l0,0V465.5z
		 M525.7,416.3c0.1-2.7,2.4-4.9,5.1-4.8c2.7,0.1,4.9,2.4,4.8,5.1c0,0.3,0,0.5-0.1,0.8h-9.7C525.7,417,525.7,416.6,525.7,416.3
		L525.7,416.3z M159.2,416.3c0.1-2.7,2.4-4.9,5.1-4.8c2.7,0.1,4.9,2.4,4.8,5.1c0,0.3,0,0.5-0.1,0.8h-9.7
		C159.3,417,159.2,416.6,159.2,416.3L159.2,416.3z"/>
	<path class="st0" d="M507.8,191.3c2,4,6.8,5.6,10.8,3.6c4-2,5.6-6.8,3.6-10.8c0-0.1-0.1-0.1-0.1-0.1L512,164
		c-2-3.9-6.9-5.5-10.8-3.4c-3.9,2-5.4,6.8-3.5,10.7L507.8,191.3z"/>
	<path class="st0" d="M475.3,91.8c-2-3.9-6.9-5.5-10.8-3.4c-3.9,2-5.4,6.8-3.5,10.7l22.4,44.1c2,4,6.8,5.6,10.8,3.6
		c4-2,5.6-6.8,3.6-10.8c0-0.1-0.1-0.1-0.1-0.2L475.3,91.8z"/>
	<path class="st0" d="M639.9,197.8l-6.9,11.6c-2.3,3.8-1,8.7,2.8,11c3.8,2.3,8.7,1,11-2.8l6.9-11.6c2.3-3.8,1-8.7-2.8-11
		C647.1,192.7,642.2,194,639.9,197.8C639.9,197.8,639.9,197.8,639.9,197.8L639.9,197.8z"/>
	<path class="st0" d="M700.6,109.5c-3.9-2.2-8.8-0.8-11,3l-34.5,60.6c-2.2,3.8-0.9,8.7,2.9,11c3.8,2.2,8.7,0.9,11-2.9
		c0-0.1,0.1-0.1,0.1-0.2l34.5-60.6C705.8,116.6,704.5,111.7,700.6,109.5z"/>
	<path class="st0" d="M601.6,98.4l3.6-31.3c0.5-4.4-2.7-8.4-7.1-8.9c-4.4-0.5-8.4,2.7-8.9,7.1l-3.6,31.3c-0.5,4.4,2.7,8.4,7.1,8.9
		c0.3,0,0.6,0.1,0.9,0.1C597.7,105.5,601.1,102.4,601.6,98.4z"/>
	<path class="st0" d="M582.1,127.8l-6.1,53.6c-0.5,4.4,2.7,8.4,7.1,8.9c0.3,0,0.6,0.1,0.9,0.1c4.1,0,7.5-3.1,8-7.1l6.1-53.6
		c0.5-4.4-2.7-8.4-7.1-8.9C586.5,120.3,582.6,123.4,582.1,127.8L582.1,127.8z"/>
	<path class="st0" d="M689.1,246l-12.6,4.9c-4.2,1.5-6.3,6.1-4.8,10.3c1.5,4.2,6.1,6.3,10.3,4.8c0.1,0,0.2-0.1,0.3-0.1l12.6-4.9
		c4.1-1.7,6.1-6.3,4.4-10.5C697.6,246.5,693.1,244.5,689.1,246z"/>
	<path class="st0" d="M728.9,230.6l-19.8,7.7c-4.2,1.5-6.3,6.1-4.8,10.3c1.5,4.2,6.1,6.3,10.3,4.8c0.1,0,0.2-0.1,0.3-0.1l19.8-7.7
		c4.1-1.7,6.1-6.3,4.4-10.5C737.5,231.1,733,229.1,728.9,230.6L728.9,230.6z"/>
	<path class="st0" d="M782.8,210.9l-30.6,10.7c-4.2,1.4-6.5,6-5.1,10.2s6,6.5,10.2,5.1c0.1,0,0.1,0,0.2-0.1l30.6-10.7
		c4.2-1.4,6.4-6,5-10.2c-1.4-4.2-6-6.4-10.2-5C782.9,210.9,782.9,210.9,782.8,210.9z"/>
</g>
</svg>
