<?xml version="1.0" encoding="utf-8"?>
<!-- Generator: Adobe Illustrator 27.0.0, SVG Export Plug-In . SVG Version: 6.00 Build 0)  -->
<svg version="1.1" id="Layer_1" xmlns="http://www.w3.org/2000/svg" xmlns:xlink="http://www.w3.org/1999/xlink" x="0px" y="0px"
	 viewBox="0 0 800 800" style="enable-background:new 0 0 800 800;" xml:space="preserve">
<style type="text/css">
	.st0{fill:#FFFFFF;filter:url(#Adobe_OpacityMaskFilter);}
	.st1{mask:url(#custom_00000120548044449225659480000008449238573324494003_);}
	.st2{fill:#8353CB;}
</style>
<defs>
	<filter id="Adobe_OpacityMaskFilter" filterUnits="userSpaceOnUse" x="7.5" y="7.5" width="785" height="785">
		<feColorMatrix  type="matrix" values="1 0 0 0 0  0 1 0 0 0  0 0 1 0 0  0 0 0 1 0"/>
	</filter>
</defs>
<mask maskUnits="userSpaceOnUse" x="7.5" y="7.5" width="785" height="785" id="custom_00000120548044449225659480000008449238573324494003_">
	<rect id="bg_00000089571744762817713570000017191984157283316159_" x="7.5" y="7.5" class="st0" width="785" height="785"/>
	<g transform="matrix(1.3333333,0,0,-1.3333333,0,682.66667)">
	</g>
</mask>
<g class="st1">
	<g id="g3366" transform="matrix(1.3333333,0,0,-1.3333333,0,682.66667)">
		<g id="g3368">
			<g>
				<g id="g3370">
					<g id="g3376" transform="translate(166.084,365)">
						<g id="path3378">
							<path class="st2" d="M133.9-183.9c-61.8,0-112,50.3-112,112v44.2h17.2v-44.2c0-52.3,42.5-94.8,94.8-94.8
								c25.3,0,49.1,9.9,67,27.8c17.9,17.9,27.8,41.7,27.8,67V2.4l-17.6-17.6l-5.4,10.6c-23.1,45.7-57.3,95.8-71.8,116.5
								C122.6,95.8,99.3,61.7,78.7,26l-5.6-9.8L39.1,50.2V-4.7H21.9v96.5l47.5-47.5c27.4,46.3,57.2,87.1,57.5,87.5l7,9.5l7-9.5
								c0.5-0.6,44.2-60.7,74.8-118.1L245.9,44V-71.9c0-29.9-11.7-58.1-32.8-79.2C192-172.3,163.8-183.9,133.9-183.9z"/>
						</g>
					</g>
					<g id="g3380" transform="translate(255.9956,455.4199)">
						<g id="path3382">
							<path class="st2" d="M90.2-108c-6.3,12.4-13.9,26.1-22.7,40.9l14.8,8.8c9-15.1,16.9-29.2,23.3-42L90.2-108z M61.5-57.3
								c-3,5-6.1,9.8-9.1,14.5L67-33.6c3-4.8,6.1-9.7,9.2-14.7L61.5-57.3z M46.3-33.2c-3.3,5-6.4,9.8-9.4,14.3l14.3,9.6
								c3-4.5,6.2-9.4,9.6-14.5L46.3-33.2z"/>
						</g>
					</g>
					<g id="g3384" transform="translate(296.6187,311.4717)">
						<g id="path3386">
							<path class="st2" d="M3.4-91C-27.1-91-52-66.2-52-35.7C-52-7.8-8.5,51.2-3.5,57.9l6.9,9.3l6.9-9.3c5-6.6,48.4-65.7,48.4-93.6
								C58.7-66.2,33.9-91,3.4-91z M3.4,38c-16.9-24.1-38.1-59.1-38.1-73.7c0-21,17.1-38.1,38.1-38.1s38.1,17.1,38.1,38.1
								C41.5-21.1,20.3,13.9,3.4,38z"/>
						</g>
					</g>
					<g id="g3388" transform="translate(126.647,32.6162)">
						<g id="path3390">
							<path class="st2" d="M27.5-85.6l-5.9,16.2c34.9,12.6,58.4,46.1,58.4,83.3c0,40.8-33.2,73.9-73.9,73.9
								c-33.9,0-61.5-27.6-61.5-61.5c0-28.1,22.9-51,51-51c23.2,0,42.1,18.9,42.1,42.1c0,19-15.5,34.5-34.5,34.5
								c-15.4,0-28-12.6-28-28c0-12.4,10.1-22.5,22.5-22.5V-16C-24.2-16-42,1.9-42,23.8C-42,48.7-21.7,69,3.2,69
								C31.8,69,55,45.8,55,17.3C55-15.4,28.3-42-4.4-42C-42-42-72.6-11.4-72.6,26.3c0,43.4,35.4,78.8,78.8,78.8
								c50.3,0,91.2-40.9,91.2-91.2C97.3-30.5,69.3-70.5,27.5-85.6z"/>
						</g>
					</g>
					<g id="g3392" transform="translate(122.0601,209.8594)">
						<g id="path3394">
							<path class="st2" d="M133.5-151.9h-17.2c0,31.6-15.9,60.6-42.6,77.8L83-59.6C114.6-79.9,133.5-114.4,133.5-151.9z M64.5-69
								c-4.7,2.3-9.7,4.2-14.7,5.7l4.8,16.6c6-1.7,11.8-4,17.4-6.8L64.5-69z M39.6-60.9c-5.2,0.9-10.4,1.3-15.7,1.3v17.2
								c6.2,0,12.5-0.5,18.6-1.6L39.6-60.9z"/>
						</g>
					</g>
					<g id="g3396" transform="translate(465.4453,208.2578)">
						<g id="path3398">
							<path class="st2" d="M2.2-258.8c-74.6,0-126.7,46.3-126.7,112.6C-124.5-78-8.6,32.5-3.7,37.2l5.9,5.6l5.9-5.6
								C9.8,35.7,48.9-1.5,82.3-46L68.5-56.3c-25,33.3-54,63.1-66.3,75.2c-10-10-31.4-31.8-52.5-57.7c-37.3-45.7-57-82.8-57-107.4
								c0-56.1,45-95.3,109.5-95.3s109.5,39.2,109.5,95.3c0,17.8-10.1,41.8-30,71.4l14.3,9.6c21.9-32.5,33-59.8,33-81.1
								C128.9-212.5,76.8-258.8,2.2-258.8z"/>
						</g>
					</g>
					<g id="g3400" transform="translate(476.2754,125.6191)">
						<g id="path3402">
							<path class="st2" d="M24.3-139.5l-4.5,16.7c11.3,3.1,21,7.9,28.8,14.4l0.6,0.5L60.4-121l-0.8-0.7
								C49.9-129.8,38-135.8,24.3-139.5z M69.5-111.8l-13.3,10.9c3.1,3.8,5.7,8.1,7.6,12.6L79.6-95C77.1-101,73.7-106.7,69.5-111.8z
								 M83.6-82.6l-16.8,3.8c1.1,4.7,1.6,9.9,1.6,15.2h17.2C85.6-70.2,85-76.6,83.6-82.6z"/>
						</g>
					</g>
					<g id="g3404" transform="translate(401.811)">
						<g id="path3406">
							<rect x="54.4" y="-120.9" class="st2" width="23" height="307.9"/>
						</g>
					</g>
					<g id="g3408" transform="translate(443.2764,181.543)">
						<g id="path3410">
							<polygon class="st2" points="24.4,-115 -29.4,-61.3 -17.2,-49.1 24.4,-90.6 66,-49.1 78.2,-61.3 							"/>
						</g>
					</g>
					<g id="g3412" transform="translate(458.4575,137.3848)">
						<g id="path3414">
							<polygon class="st2" points="9.2,-139.1 -62,-67.9 -49.8,-55.7 9.2,-114.7 68.3,-55.7 80.4,-67.9 							"/>
						</g>
					</g>
					<g id="g3416" transform="translate(209.8296,48.4326)">
						<g id="path3418">
							<path class="st2" d="M-63.8-130.8c-77.4,0-140.4,63-140.4,140.4s63,140.4,140.4,140.4S76.5,86.9,76.5,9.5
								c0-33-11.7-65-32.8-90.2L30.5-69.6C49-47.5,59.3-19.4,59.3,9.5C59.3,77.4,4,132.7-63.8,132.7S-187,77.4-187,9.5
								s55.2-123.1,123.1-123.1c28.9,0,57,10.2,79.1,28.8L26.4-98C1.2-119.2-30.9-130.8-63.8-130.8z"/>
						</g>
					</g>
				</g>
			</g>
		</g>
	</g>
</g>
</svg>
