<?xml version="1.0" encoding="UTF-8"?>
<svg id="Layer_1" data-name="Layer 1" xmlns="http://www.w3.org/2000/svg" viewBox="0 0 88.59 89.65">
  <defs>
    <style>
      .cls-1 {
        fill: none;
        stroke: #bcbec0;
        stroke-miterlimit: 10;
        stroke-width: .25px;
      }
    </style>
  </defs>
  <path class="cls-1" d="M52.21,.1c1.43,1.09,2.81,2.3,4.1,3.62l31.29,31.89c1.47,1.5,1.02,4.01-.88,4.89-6.46,3-13.24,5.08-20.14,6.26-7.43,1.27-15,1.49-22.47,.66C28.24,45.67,12.8,39.2,.08,28.02"/>
  <path class="cls-1" d="M44.11,68.94c.96-7.13,.96-14.38,0-21.52,7.47,.83,15.04,.61,22.47-.66,1.99,7.32,2.92,14.87,2.8,22.4-.03,1.65-1.38,2.98-3.03,2.98-7.49-.02-14.98-1.09-22.23-3.2Z"/>
  <path class="cls-1" d="M44.1,47.43c.96,7.14,.97,14.38,0,21.52-.85,6.35-2.47,12.62-4.84,18.66-.8,2.05-3.46,2.58-5,1.01L2.64,56.37c-.9-.91-1.74-1.86-2.52-2.84"/>
</svg>