<?xml version="1.0" encoding="UTF-8"?>
<svg id="Layer_1" data-name="Layer 1" xmlns="http://www.w3.org/2000/svg" viewBox="0 0 19.51 19.39">
  <defs>
    <style>
      .cls-1 {
        fill: none;
        stroke: #b8a6d0;
        stroke-miterlimit: 10;
        stroke-width: .87px;
      }
    </style>
  </defs>
  <g>
    <path class="cls-1" d="M1.17,14.59c.46-.94,1.18-1.82,2.5-1.82,.49,0,.97,.13,1.4,.36,1.92,.87,3.9-.97,3.89-3.11-.04-5.03-2.67-3.66-3.48-7.14"/>
    <path class="cls-1" d="M18.29,10.35c.03-.36,.04-.73,.04-1.12,0-5.91-3.93-6.05-4.66-6.05h-.02c-2.55,0-2.84,1.3-3.61,1.3-.25,0-.48-.11-.63-.31-1.14-1.47-1.9-1.37-1.9-2.94"/>
    <path class="cls-1" d="M2.61,16.63c.22-.24,.4-.51,.53-.81,.11-.29,.39-.48,.7-.48,1,0,2.04,2.81,6.41,2.81,.8,0,1.59-.12,2.35-.34"/>
    <path class="cls-1" d="M5.07,13.13c.64,.25,1.31,.38,2,.37,.72-.02,1.44-.15,2.13-.38"/>
  </g>
  <path class="cls-1" d="M12.57,14.24l1.29,1.58,2.49-3.05"/>
  <circle class="cls-1" cx="14.37" cy="14.23" r="3.92"/>
</svg>