<?xml version="1.0" encoding="UTF-8"?>
<svg id="Layer_1" data-name="Layer 1" xmlns="http://www.w3.org/2000/svg" viewBox="0 0 19.51 19.39">
  <defs>
    <style>
      .cls-1 {
        fill: #b8a6d0;
      }
    </style>
  </defs>
  <path class="cls-1" d="M14.24,5.61c-.2,0-.39,.03-.56,.1v-1.22c0-.93-.75-1.68-1.68-1.68-.22,0-.43,.04-.62,.12-.19-.71-.85-1.24-1.62-1.24s-1.43,.53-1.62,1.24c-.19-.08-.4-.12-.62-.12-.93,0-1.68,.75-1.68,1.68v2.9c-.18-.06-.36-.1-.56-.1-.93,0-1.68,.75-1.68,1.68v4.13c0,3.4,2.77,6.17,6.17,6.17s6.17-2.77,6.17-6.17V7.29c0-.93-.75-1.68-1.68-1.68Zm.56,7.49c0,2.78-2.26,5.05-5.05,5.05s-5.05-2.26-5.05-5.05v-4.13c0-.31,.25-.56,.56-.56s.56,.25,.56,.56v3.72l3.31,1.8c.72,.39,1.17,1.15,1.17,1.97h1.12c0-1.24-.67-2.37-1.76-2.96l-2.73-1.48V4.48c0-.31,.25-.56,.56-.56s.56,.25,.56,.56v5.93h1.12V3.36c0-.31,.25-.56,.56-.56s.56,.25,.56,.56v7.05h1.12V4.48c0-.31,.25-.56,.56-.56s.56,.25,.56,.56v5.93h1.12v-3.12c0-.31,.25-.56,.56-.56s.56,.25,.56,.56v5.81Z"/>
  <path class="cls-1" d="M2.46,13.1H1.34c0,1.19,.24,2.34,.73,3.42,.47,1.04,1.13,1.97,1.97,2.75l.76-.82c-1.49-1.38-2.34-3.33-2.34-5.35Z"/>
  <path class="cls-1" d="M16.36,.12l-.79,.79c.95,.95,1.48,2.22,1.48,3.57h1.12c0-1.65-.64-3.19-1.81-4.36Z"/>
  <path class="cls-1" d="M12,.56V1.68c1.55,0,2.8,1.26,2.8,2.8h1.12c0-2.16-1.76-3.93-3.93-3.93Z"/>
</svg>