<?xml version="1.0" encoding="UTF-8"?>
<svg id="Layer_1" data-name="Layer 1" xmlns="http://www.w3.org/2000/svg" viewBox="0 0 19.51 19.39">
  <defs>
    <style>
      .cls-1 {
        fill: #b8a6d0;
      }
    </style>
  </defs>
  <path class="cls-1" d="M9.7,0C4.34,0,0,4.34,0,9.7s4.34,9.7,9.7,9.7c.25,0,.46-.21,.46-.46v-5.97l.54,.31c1.98,1.14,4.52,.46,5.67-1.52l.41-.7c.29-.52,.11-1.18-.41-1.47l-.7-.4c-.96-.55-2.09-.7-3.16-.41l-.33,.1c.17-1.28-.26-2.56-1.18-3.47l-.55-.55c-.43-.41-1.1-.41-1.53,0l-.56,.57c-.48,.47-.83,1.06-1.03,1.7-.07,.24,.06,.5,.3,.58,.23,.09,.5-.02,.59-.26,0-.02,.01-.03,.02-.05,.15-.5,.41-.95,.77-1.33l.57-.57c.04-.06,.11-.08,.17-.04,.02,.01,.03,.03,.04,.04l.57,.57c.89,.89,1.18,2.21,.75,3.39-.45,.34-.83,.76-1.11,1.25l-.31,.54-.31-.54c-1.15-1.98-3.69-2.67-5.68-1.52l-.68,.39c-.51,.3-.69,.96-.4,1.47l.4,.7c1.15,1.99,3.69,2.67,5.68,1.52l.53-.31v5.49C4.42,18.13,.77,13.96,1.09,9.14,1.41,4.33,5.58,.68,10.39,1c4.82,.32,8.47,4.48,8.15,9.3-.25,3.75-2.87,6.93-6.51,7.88-.24,.07-.38,.32-.32,.57,.06,.24,.31,.39,.55,.33,0,0,.01,0,.02,0,5.18-1.37,8.27-6.67,6.9-11.85C18.05,2.92,14.14-.05,9.7,0Zm1.11,11.16c.9-1.54,2.87-2.07,4.42-1.18l.69,.4c.07,.04,.1,.14,.06,.21l-.41,.7c-.89,1.54-2.87,2.07-4.41,1.18l-.85-.48,.5-.83Zm-2.57,1.31c-1.54,.89-3.52,.36-4.41-1.18l-.41-.7c-.04-.08-.01-.17,.06-.21l.69-.4c1.55-.89,3.52-.36,4.42,1.18l.5,.83-.85,.48Z"/>
</svg>