<?xml version="1.0" encoding="UTF-8"?>
<svg id="Layer_1" data-name="Layer 1" xmlns="http://www.w3.org/2000/svg" viewBox="0 0 19.51 19.39">
  <defs>
    <style>
      .cls-1 {
        fill: #b8a6d0;
      }
    </style>
  </defs>
  <path class="cls-1" d="M18.27,7.7s.02-.05,.03-.08c.2-.93-.21-1.55-.57-1.84-.08-.69-.71-1.14-1.22-1.35-.05-.65-.29-1.19-.71-1.58-.68-.65-1.66-.74-2.14-.74h-.01c-.47-.84-1.53-.87-2.16-.75-.37-.13-.73-.23-1.1-.31-.2-.04-.4,.1-.44,.31-.04,.21,.09,.42,.29,.46,.36,.07,.73,.18,1.09,.32,.07,.03,.14,.03,.21,.01,.01,0,1.24-.3,1.51,.5,.06,.17,.22,.27,.39,.26,.01,0,1.19-.11,1.85,.53,.24,.22,.38,.51,.44,.88-.5,.03-1.29,.21-1.7,1.06-.09,.19-.02,.43,.16,.53,.05,.03,.11,.04,.17,.04,.14,0,.27-.08,.33-.21,.34-.71,1.2-.64,1.35-.62,.14,.05,.96,.35,.92,.88,0,.16,.07,.3,.2,.37,0,0,.13,.08,.25,.24,.15,.22,.2,.48,.15,.79l-.03,.03c-.58,.07-1.45,.45-1.57,1.58-.02,.21,.13,.41,.33,.43,.01,0,.03,0,.04,0,.19,0,.35-.15,.37-.35,.08-.72,.66-.86,.91-.89,1.63,1.26,.48,4.19,.4,4.37-.4,.81-.91,1.23-1.55,1.26-.27-.24-.99-.77-2.23-1.08-.2-.05-.4,.08-.45,.29-.05,.21,.08,.42,.28,.47,1.07,.27,1.68,.71,1.9,.9,0,.11-.02,.21-.04,.32-.27,1.1-1.69,1.68-3.18,1.29-.25-.07-.48-.15-.71-.27-.11-.06-.24-.05-.35,.01-.11,.06-.18,.18-.19,.3-.04,.51-.02,.99,.06,1.45l-.98,.17c-.04-.16-.08-.34-.13-.53-.22-.95-.53-2.32-1.46-3.44,.77-.2,1.52-.33,2.22-.39,.21-.02,.36-.21,.34-.42-.02-.22-.2-.38-.4-.36-.93,.08-1.92,.27-2.95,.58-.95,.13-1.61,.08-1.69,.07-1.62-.25-2.07-1.28-1.96-2.08,.02-.13-.03-.26-.12-.34s-.22-.12-.34-.09l-.27,.07c-.47-.02-1.65-.22-2.18-.86-.23-.28-.32-.62-.27-1.04,.02-.16-.06-.32-.2-.39,0,0-.16-.1-.2-.28-.05-.21,.09-.46,.21-.64,.07-.11,.09-.24,.05-.36,0,0-.28-.84,.04-1.53,.17-.38,.51-.67,1-.84,.14-.05,.24-.18,.25-.34,0,0,.05-.5,.39-.77,.24-.19,.58-.23,1.02-.14,.1,.02,.2,0,.29-.06s.14-.15,.16-.26c0,0,.17-.82,1.62-.85,.22,.32,.71,1.15,.35,1.89-.09,.19-.02,.43,.16,.53,.05,.03,.11,.04,.17,.04,.14,0,.27-.08,.33-.21,.13-.28,.2-.55,.21-.82,.2-.09,.51-.19,.76-.11,.16,.05,.29,.17,.38,.38,.06,.14,.2,.22,.34,.22,.05,0,.11-.01,.16-.04,.19-.09,.26-.33,.17-.52-.19-.4-.48-.67-.84-.79-.39-.12-.78-.04-1.07,.06-.1-.35-.25-.65-.39-.88,.18-.08,.41-.17,.7-.25,.2-.05,.32-.27,.27-.48-.05-.21-.26-.33-.46-.28-.59,.16-.99,.37-1.17,.48-1.51,0-2.09,.69-2.31,1.14-.52-.05-.96,.06-1.31,.34-.41,.32-.57,.78-.64,1.07-.57,.25-.98,.64-1.22,1.16-.34,.76-.21,1.57-.12,1.94-.23,.39-.3,.76-.23,1.11,.07,.3,.23,.5,.36,.63-.02,.54,.14,1.02,.46,1.41,.8,.98,2.4,1.12,2.72,1.13,.08,1.09,.87,2.17,2.62,2.44,0,0,.01,0,.02,0,.02,0,.21,.02,.53,.02,.3,0,.7-.02,1.19-.08,1.03,1.02,1.35,2.4,1.58,3.42,.09,.37,.16,.69,.26,.94,.06,.15,.2,.24,.34,.24,.02,0,.04,0,.06,0l1.69-.29c.11-.02,.2-.08,.25-.18s.07-.21,.04-.32c-.09-.33-.14-.69-.15-1.06,.11,.04,.22,.07,.33,.1,.89,.24,1.81,.18,2.56-.14,.8-.35,1.34-.95,1.52-1.71,.03-.1,.04-.21,.05-.32,.64-.09,1.4-.49,1.99-1.68,0,0,0-.01,0-.02,.02-.04,.4-.94,.51-2.05,.14-1.36-.2-2.44-.97-3.14Z"/>
  <path class="cls-1" d="M8.92,6.55s.1,.56,.46,1.09c.09,.13,.19,.26,.32,.38-.07,.4-.65,.62-.67,.63-.19,.07-.3,.29-.23,.49,.05,.16,.2,.27,.35,.27,.04,0,.08,0,.12-.02,.34-.12,.85-.43,1.07-.91,.29,.14,.64,.23,1.06,.23,.03,0,.05,0,.08,0,.21,0,.37-.18,.36-.4,0-.21-.17-.38-.37-.38,0,0,0,0,0,0-1.5,.04-1.79-1.44-1.8-1.51-.04-.21-.23-.35-.43-.31-.2,.04-.34,.24-.3,.45Z"/>
  <path class="cls-1" d="M13.47,9.98c.65-1.19,.39-2.1,.06-2.66-.35-.59-.85-.9-.87-.92-.18-.11-.4-.05-.51,.14-.1,.19-.05,.42,.13,.54,0,0,.38,.24,.62,.67,.31,.55,.28,1.17-.09,1.84-.1,.19-.04,.43,.14,.53,.06,.04,.12,.05,.18,.05,.13,0,.26-.07,.32-.2Z"/>
  <path class="cls-1" d="M17.42,10.9c.17-.13,.21-.37,.09-.55s-.35-.22-.52-.09c-.36,.27-.69,.37-.98,.3-.44-.11-.68-.57-.69-.59-.1-.19-.32-.26-.5-.16-.18,.1-.25,.34-.16,.53,.01,.03,.34,.66,.98,.92-.12,.48-.19,1.32,.49,1.91,.07,.06,.15,.09,.24,.09,.11,0,.21-.05,.29-.14,.13-.17,.11-.41-.05-.55-.41-.36-.3-.95-.21-1.22,.34-.04,.68-.2,1.03-.46Z"/>
  <path class="cls-1" d="M6.44,8.39c-.03-.21-.21-.37-.42-.34-.2,.03-.35,.22-.32,.44,.06,.53-.34,.92-.57,1.1-.6-.31-1.26-.19-1.3-.19-.2,.04-.34,.24-.3,.45s.23,.35,.43,.32c0,0,.64-.11,1.01,.24,.22,.2,.32,.52,.31,.97,0,.22,.16,.39,.36,.4,0,0,0,0,0,0,.2,0,.37-.17,.37-.38,.01-.53-.1-.96-.32-1.29,.37-.32,.83-.9,.73-1.72Z"/>
  <path class="cls-1" d="M2.93,6.34c-.04,.1-.1,.19-.18,.28-.2,.22-.46,.3-.47,.3-.2,.06-.31,.27-.26,.48,.04,.17,.2,.29,.36,.29,.03,0,.06,0,.1-.01,.02,0,.49-.14,.85-.57,.25,.19,.54,.29,.86,.29,.09,0,.18,0,.27-.02,.42-.07,.74-.28,.77-.3,.17-.12,.22-.36,.11-.54s-.34-.23-.52-.12c0,0-.22,.14-.49,.19-.27,.05-.48-.02-.66-.2,.08-.34,.07-.71-.03-1.12-.05-.21-.26-.33-.46-.27-.2,.06-.32,.27-.26,.48,.09,.33,.08,.61,0,.84,0,0,0,.01,0,.02Z"/>
  <path class="cls-1" d="M11.66,3.01c-.63-.39-1.35-.19-1.38-.18-.2,.06-.32,.27-.26,.48,.05,.21,.26,.33,.46,.27,0,0,.45-.12,.81,.1,.21,.13,.36,.37,.43,.71,.04,.18,.19,.3,.36,.3,.03,0,.06,0,.09-.01,.2-.05,.32-.26,.28-.47-.12-.56-.39-.96-.78-1.2Z"/>
  <path class="cls-1" d="M10.31,10.38c-.27,.48-.65,.73-1.14,.76-.39,.02-.72-.11-.73-.12-.19-.08-.41,.01-.49,.21-.08,.2,.01,.43,.2,.51,.04,.02,.42,.18,.92,.18,.03,0,.06,0,.09,0,.53-.02,1.27-.24,1.78-1.15,.1-.19,.04-.43-.13-.53-.18-.11-.41-.05-.51,.14Z"/>
  <path class="cls-1" d="M13.01,12.67c-.09-.14-.25-.2-.41-.16-.15,.04-.26,.18-.27,.34-.02,.16,.07,.32,.21,.39,.14,.07,.3,.04,.41-.07,.13-.13,.16-.35,.06-.5Z"/>
  <path class="cls-1" d="M8.5,1.43c.06,.15,.21,.25,.36,.24,.15,0,.29-.11,.33-.26,.05-.15,0-.33-.12-.43-.13-.11-.31-.12-.44-.02-.15,.1-.2,.3-.14,.47Z"/>
</svg>